<mxfile host="app.diagrams.net" modified="2024-04-22T16:14:45.749Z" agent="Mozilla/5.0 (Windows NT 10.0; Win64; x64) AppleWebKit/537.36 (KHTML, like Gecko) Chrome/124.0.0.0 Safari/537.36" etag="m_juWfWL3ui3SGopn9iW" version="24.2.7" type="github">
  <diagram id="C5RBs43oDa-KdzZeNtuy" name="Page-1">
    <mxGraphModel dx="1167" dy="580" grid="1" gridSize="10" guides="1" tooltips="1" connect="1" arrows="1" fold="1" page="1" pageScale="1" pageWidth="827" pageHeight="1169" math="0" shadow="0">
      <root>
        <mxCell id="WIyWlLk6GJQsqaUBKTNV-0" />
        <mxCell id="WIyWlLk6GJQsqaUBKTNV-1" parent="WIyWlLk6GJQsqaUBKTNV-0" />
        <mxCell id="eIU1jxHLxyxmwc79vMg3-26" style="edgeStyle=orthogonalEdgeStyle;rounded=0;orthogonalLoop=1;jettySize=auto;html=1;entryX=0.5;entryY=0;entryDx=0;entryDy=0;" parent="WIyWlLk6GJQsqaUBKTNV-1" source="eIU1jxHLxyxmwc79vMg3-1" target="eIU1jxHLxyxmwc79vMg3-2" edge="1">
          <mxGeometry relative="1" as="geometry" />
        </mxCell>
        <mxCell id="eIU1jxHLxyxmwc79vMg3-1" value="&lt;p style=&quot;line-height: 140%;&quot;&gt;Start&lt;/p&gt;" style="ellipse;whiteSpace=wrap;html=1;" parent="WIyWlLk6GJQsqaUBKTNV-1" vertex="1">
          <mxGeometry x="350" y="30" width="166" height="100" as="geometry" />
        </mxCell>
        <mxCell id="eIU1jxHLxyxmwc79vMg3-27" style="edgeStyle=orthogonalEdgeStyle;rounded=0;orthogonalLoop=1;jettySize=auto;html=1;entryX=0.5;entryY=0;entryDx=0;entryDy=0;" parent="WIyWlLk6GJQsqaUBKTNV-1" source="eIU1jxHLxyxmwc79vMg3-2" target="eIU1jxHLxyxmwc79vMg3-4" edge="1">
          <mxGeometry relative="1" as="geometry" />
        </mxCell>
        <mxCell id="eIU1jxHLxyxmwc79vMg3-2" value="Input Test Number" style="shape=parallelogram;perimeter=parallelogramPerimeter;whiteSpace=wrap;html=1;fixedSize=1;" parent="WIyWlLk6GJQsqaUBKTNV-1" vertex="1">
          <mxGeometry x="338" y="200" width="190" height="60" as="geometry" />
        </mxCell>
        <mxCell id="eIU1jxHLxyxmwc79vMg3-16" style="edgeStyle=orthogonalEdgeStyle;rounded=0;orthogonalLoop=1;jettySize=auto;html=1;entryX=0.5;entryY=0;entryDx=0;entryDy=0;" parent="WIyWlLk6GJQsqaUBKTNV-1" source="eIU1jxHLxyxmwc79vMg3-3" target="eIU1jxHLxyxmwc79vMg3-8" edge="1">
          <mxGeometry relative="1" as="geometry" />
        </mxCell>
        <mxCell id="eIU1jxHLxyxmwc79vMg3-17" value="False" style="edgeLabel;html=1;align=center;verticalAlign=middle;resizable=0;points=[];" parent="eIU1jxHLxyxmwc79vMg3-16" vertex="1" connectable="0">
          <mxGeometry x="-0.2533" y="-1" relative="1" as="geometry">
            <mxPoint as="offset" />
          </mxGeometry>
        </mxCell>
        <mxCell id="eIU1jxHLxyxmwc79vMg3-3" value="number % i == 0" style="rhombus;whiteSpace=wrap;html=1;" parent="WIyWlLk6GJQsqaUBKTNV-1" vertex="1">
          <mxGeometry x="363" y="520" width="140" height="140" as="geometry" />
        </mxCell>
        <mxCell id="eIU1jxHLxyxmwc79vMg3-28" style="edgeStyle=orthogonalEdgeStyle;rounded=0;orthogonalLoop=1;jettySize=auto;html=1;entryX=0.5;entryY=0;entryDx=0;entryDy=0;" parent="WIyWlLk6GJQsqaUBKTNV-1" source="eIU1jxHLxyxmwc79vMg3-4" target="eIU1jxHLxyxmwc79vMg3-5" edge="1">
          <mxGeometry relative="1" as="geometry" />
        </mxCell>
        <mxCell id="eIU1jxHLxyxmwc79vMg3-4" value="i = 1" style="rounded=0;whiteSpace=wrap;html=1;" parent="WIyWlLk6GJQsqaUBKTNV-1" vertex="1">
          <mxGeometry x="358" y="300" width="150" height="60" as="geometry" />
        </mxCell>
        <mxCell id="eIU1jxHLxyxmwc79vMg3-12" style="edgeStyle=orthogonalEdgeStyle;rounded=0;orthogonalLoop=1;jettySize=auto;html=1;entryX=0.5;entryY=0;entryDx=0;entryDy=0;" parent="WIyWlLk6GJQsqaUBKTNV-1" source="eIU1jxHLxyxmwc79vMg3-5" target="eIU1jxHLxyxmwc79vMg3-3" edge="1">
          <mxGeometry relative="1" as="geometry" />
        </mxCell>
        <mxCell id="eIU1jxHLxyxmwc79vMg3-5" value="i = i+1" style="rounded=0;whiteSpace=wrap;html=1;" parent="WIyWlLk6GJQsqaUBKTNV-1" vertex="1">
          <mxGeometry x="358" y="410" width="150" height="60" as="geometry" />
        </mxCell>
        <mxCell id="eIU1jxHLxyxmwc79vMg3-30" style="edgeStyle=orthogonalEdgeStyle;rounded=0;orthogonalLoop=1;jettySize=auto;html=1;entryX=0.5;entryY=0;entryDx=0;entryDy=0;" parent="WIyWlLk6GJQsqaUBKTNV-1" source="eIU1jxHLxyxmwc79vMg3-7" target="eIU1jxHLxyxmwc79vMg3-29" edge="1">
          <mxGeometry relative="1" as="geometry" />
        </mxCell>
        <mxCell id="eIU1jxHLxyxmwc79vMg3-7" value="Not a Prime number" style="shape=parallelogram;perimeter=parallelogramPerimeter;whiteSpace=wrap;html=1;fixedSize=1;" parent="WIyWlLk6GJQsqaUBKTNV-1" vertex="1">
          <mxGeometry x="338" y="830" width="190" height="60" as="geometry" />
        </mxCell>
        <mxCell id="eIU1jxHLxyxmwc79vMg3-18" style="edgeStyle=orthogonalEdgeStyle;rounded=0;orthogonalLoop=1;jettySize=auto;html=1;entryX=1;entryY=0.5;entryDx=0;entryDy=0;exitX=1;exitY=0.25;exitDx=0;exitDy=0;" parent="WIyWlLk6GJQsqaUBKTNV-1" source="eIU1jxHLxyxmwc79vMg3-8" target="eIU1jxHLxyxmwc79vMg3-5" edge="1">
          <mxGeometry relative="1" as="geometry">
            <mxPoint x="508" y="760" as="sourcePoint" />
            <mxPoint x="583" y="480" as="targetPoint" />
            <Array as="points">
              <mxPoint x="508" y="730" />
              <mxPoint x="630" y="730" />
              <mxPoint x="630" y="440" />
            </Array>
          </mxGeometry>
        </mxCell>
        <mxCell id="eIU1jxHLxyxmwc79vMg3-25" value="False" style="edgeLabel;html=1;align=center;verticalAlign=middle;resizable=0;points=[];" parent="eIU1jxHLxyxmwc79vMg3-18" vertex="1" connectable="0">
          <mxGeometry x="-0.675" y="1" relative="1" as="geometry">
            <mxPoint as="offset" />
          </mxGeometry>
        </mxCell>
        <mxCell id="eIU1jxHLxyxmwc79vMg3-22" style="edgeStyle=orthogonalEdgeStyle;rounded=0;orthogonalLoop=1;jettySize=auto;html=1;entryX=0.467;entryY=-0.067;entryDx=0;entryDy=0;entryPerimeter=0;" parent="WIyWlLk6GJQsqaUBKTNV-1" source="eIU1jxHLxyxmwc79vMg3-8" target="eIU1jxHLxyxmwc79vMg3-23" edge="1">
          <mxGeometry relative="1" as="geometry">
            <mxPoint x="720" y="750" as="targetPoint" />
          </mxGeometry>
        </mxCell>
        <mxCell id="eIU1jxHLxyxmwc79vMg3-24" value="True" style="edgeLabel;html=1;align=center;verticalAlign=middle;resizable=0;points=[];" parent="eIU1jxHLxyxmwc79vMg3-22" vertex="1" connectable="0">
          <mxGeometry x="-0.2979" y="-1" relative="1" as="geometry">
            <mxPoint as="offset" />
          </mxGeometry>
        </mxCell>
        <mxCell id="eIU1jxHLxyxmwc79vMg3-8" value="i &amp;gt;= number" style="rounded=0;whiteSpace=wrap;html=1;" parent="WIyWlLk6GJQsqaUBKTNV-1" vertex="1">
          <mxGeometry x="358" y="720" width="150" height="60" as="geometry" />
        </mxCell>
        <mxCell id="eIU1jxHLxyxmwc79vMg3-20" style="edgeStyle=orthogonalEdgeStyle;rounded=0;orthogonalLoop=1;jettySize=auto;html=1;entryX=0.025;entryY=0.627;entryDx=0;entryDy=0;entryPerimeter=0;" parent="WIyWlLk6GJQsqaUBKTNV-1" source="eIU1jxHLxyxmwc79vMg3-3" target="eIU1jxHLxyxmwc79vMg3-7" edge="1">
          <mxGeometry relative="1" as="geometry">
            <Array as="points">
              <mxPoint x="240" y="590" />
              <mxPoint x="240" y="868" />
            </Array>
          </mxGeometry>
        </mxCell>
        <mxCell id="eIU1jxHLxyxmwc79vMg3-21" value="True" style="edgeLabel;html=1;align=center;verticalAlign=middle;resizable=0;points=[];" parent="eIU1jxHLxyxmwc79vMg3-20" vertex="1" connectable="0">
          <mxGeometry x="-0.0726" y="1" relative="1" as="geometry">
            <mxPoint as="offset" />
          </mxGeometry>
        </mxCell>
        <mxCell id="eIU1jxHLxyxmwc79vMg3-31" style="edgeStyle=orthogonalEdgeStyle;rounded=0;orthogonalLoop=1;jettySize=auto;html=1;entryX=1;entryY=0.5;entryDx=0;entryDy=0;" parent="WIyWlLk6GJQsqaUBKTNV-1" source="eIU1jxHLxyxmwc79vMg3-23" target="eIU1jxHLxyxmwc79vMg3-29" edge="1">
          <mxGeometry relative="1" as="geometry">
            <Array as="points">
              <mxPoint x="680" y="1010" />
            </Array>
          </mxGeometry>
        </mxCell>
        <mxCell id="eIU1jxHLxyxmwc79vMg3-23" value="Prime number" style="shape=parallelogram;perimeter=parallelogramPerimeter;whiteSpace=wrap;html=1;fixedSize=1;" parent="WIyWlLk6GJQsqaUBKTNV-1" vertex="1">
          <mxGeometry x="590" y="830" width="190" height="60" as="geometry" />
        </mxCell>
        <mxCell id="eIU1jxHLxyxmwc79vMg3-29" value="&lt;p style=&quot;line-height: 140%;&quot;&gt;End&lt;/p&gt;" style="ellipse;whiteSpace=wrap;html=1;" parent="WIyWlLk6GJQsqaUBKTNV-1" vertex="1">
          <mxGeometry x="350" y="960" width="166" height="100" as="geometry" />
        </mxCell>
      </root>
    </mxGraphModel>
  </diagram>
</mxfile>
